<?xml version="1.0" standalone="no"?>
<!DOCTYPE svg PUBLIC "-//W3C//DTD SVG 20010904//EN"
 "http://www.w3.org/TR/2001/REC-SVG-20010904/DTD/svg10.dtd">
<svg version="1.0" xmlns="http://www.w3.org/2000/svg"
 width="1500.000000pt" height="1500.000000pt" viewBox="0 0 1500.000000 1500.000000"
 preserveAspectRatio="xMidYMid meet">
<metadata>
Created by potrace 1.14, written by Peter Selinger 2001-2017
</metadata>
<g transform="translate(0.000000,1500.000000) scale(0.100000,-0.100000)"
fill="#000000" stroke="none">
<path d="M6124 10155 c-55 -27 -111 -89 -141 -156 -15 -31 -25 -40 -53 -44
-185 -32 -290 -169 -307 -402 -8 -113 6 -118 91 -34 34 33 64 61 67 61 4 0 9
-30 12 -68 9 -91 31 -160 70 -219 35 -52 69 -67 85 -36 5 10 15 45 22 78 7 33
14 63 17 68 2 4 25 -18 50 -49 70 -86 171 -141 186 -101 2 6 -4 73 -14 147
-10 74 -18 146 -18 160 l-1 25 20 -25 c39 -49 140 -267 179 -385 44 -133 84
-320 100 -464 6 -52 9 -96 8 -97 -1 -1 -67 -18 -147 -38 -386 -96 -490 -191
-315 -288 27 -14 94 -38 149 -53 227 -59 316 -98 316 -135 0 -21 -9 -27 -134
-76 -27 -10 -58 -32 -70 -47 l-21 -28 20 -37 c76 -141 685 -392 1200 -496 225
-45 290 -51 540 -50 203 0 261 4 375 23 438 74 853 241 948 381 65 96 -32 231
-231 321 l-77 34 -2 275 c-3 257 -4 275 -21 278 -10 2 -238 -58 -507 -134
l-489 -137 -471 167 c-259 92 -478 165 -486 162 -12 -4 -14 -49 -14 -271 0
-146 -3 -265 -6 -265 -4 0 -28 8 -55 17 l-49 18 0 271 c0 205 -3 274 -12 282
-7 5 -46 20 -85 33 l-73 23 0 142 0 141 180 -55 c99 -31 180 -59 180 -62 0 -7
-162 -40 -197 -40 -34 0 -53 -11 -53 -30 0 -10 8 -21 17 -24 83 -32 1103 -386
1112 -386 30 0 1167 332 1179 344 17 17 8 34 -24 46 -22 9 -24 15 -24 85 0 67
-2 75 -19 75 -21 0 -31 -35 -31 -111 l0 -48 -72 20 c-177 49 -396 153 -541
256 -101 72 -247 216 -311 307 -48 68 -49 69 -32 96 24 41 21 87 -9 114 -21
20 -24 32 -27 102 -3 68 -6 79 -22 82 -28 6 -36 -15 -36 -92 0 -58 -4 -73 -25
-98 -29 -34 -32 -69 -8 -108 16 -28 16 -28 -35 -92 -28 -34 -73 -85 -100 -111
l-49 -49 -54 28 c-84 42 -169 101 -232 163 -88 85 -101 107 -107 181 -4 57 -8
65 -25 65 -17 0 -21 -8 -25 -66 -4 -59 -10 -72 -50 -124 -82 -106 -214 -203
-360 -266 -91 -38 -240 -77 -331 -85 -37 -4 -73 -10 -81 -15 -25 -16 6 -41 77
-63 l70 -22 5 -169 5 -170 83 -29 c82 -28 83 -29 80 -60 l-3 -31 -164 -28
c-90 -15 -166 -26 -168 -23 -3 2 -11 59 -19 125 -29 250 -96 479 -202 693 -37
73 -68 137 -70 141 -2 5 40 -21 94 -57 100 -67 130 -78 140 -52 9 22 -13 115
-41 175 -14 30 -23 56 -21 58 3 3 29 -2 59 -11 30 -9 67 -16 81 -16 23 0 26 4
26 36 0 69 -48 135 -145 200 l-50 34 60 0 c33 0 67 5 75 10 24 15 -5 57 -77
112 -72 54 -146 84 -229 93 -51 6 -66 3 -110 -20z m218 -69 c31 -14 69 -36 84
-49 l29 -22 -115 -5 c-102 -4 -115 -7 -115 -23 0 -13 18 -24 65 -41 125 -44
213 -104 246 -168 18 -34 16 -34 -88 -7 -118 30 -133 17 -77 -66 33 -49 73
-144 65 -152 -3 -3 -22 8 -43 24 -80 63 -226 153 -249 153 -30 0 -30 2 -2
-222 12 -98 18 -181 15 -185 -10 -10 -51 32 -114 115 -77 102 -80 101 -123
-68 -11 -41 -13 -43 -26 -26 -18 26 -44 144 -52 246 -9 105 -16 107 -103 31
l-62 -55 7 55 c20 153 120 263 253 276 52 6 55 7 78 52 35 69 82 129 118 152
44 28 132 21 209 -15z m1763 -431 c0 -21 -31 -33 -46 -18 -5 5 -7 17 -3 27 9
24 49 17 49 -9z m-712 -464 l-8 -104 -60 -22 -60 -23 -263 77 c-166 48 -257
78 -245 82 10 4 61 19 113 34 186 53 325 133 450 259 l75 76 3 -137 c1 -76 -1
-185 -5 -242z m253 199 c39 -25 85 -52 102 -59 18 -8 32 -17 32 -22 0 -18
-296 -199 -326 -199 -5 0 -8 91 -6 221 l3 220 62 -57 c34 -32 94 -78 133 -104z
m409 -195 c-7 -221 -16 -359 -37 -513 -10 -79 -14 -92 -29 -90 -31 5 -939 323
-939 328 0 4 28 12 63 19 330 68 693 273 877 496 l55 67 8 -49 c4 -26 5 -142
2 -258z m163 175 c180 -203 434 -363 727 -459 66 -22 113 -42 105 -45 -19 -7
-915 -262 -954 -272 l-29 -7 7 54 c21 175 36 418 38 619 3 225 3 231 21 208
10 -13 48 -57 85 -98z m-1047 -717 l49 -18 0 -52 c0 -29 -4 -53 -8 -53 -5 0
-29 7 -55 16 l-47 16 0 54 c0 30 3 54 6 54 4 0 28 -8 55 -17z m-281 -247 l0
-214 80 -27 80 -27 0 -78 c0 -50 4 -81 13 -87 19 -16 341 -120 355 -116 9 4
12 52 12 196 0 205 8 257 43 282 48 34 130 5 164 -57 15 -28 18 -68 21 -280
l4 -247 167 -55 c91 -31 173 -56 182 -56 20 0 989 269 1011 281 13 7 18 25 20
79 l3 70 75 -38 c45 -22 98 -59 133 -92 51 -50 57 -60 57 -97 0 -37 -5 -46
-51 -87 -107 -96 -399 -215 -691 -280 -424 -95 -775 -84 -1253 39 -359 93
-736 243 -917 367 -73 49 -75 68 -9 97 27 11 55 21 61 21 6 0 28 9 48 19 38
19 62 55 62 90 0 45 59 90 160 122 42 12 56 22 58 38 5 31 -18 34 -87 11 -68
-22 -125 -55 -154 -88 l-18 -20 -42 23 c-23 13 -85 36 -137 50 -208 58 -291
86 -317 109 -27 24 -28 24 -9 45 27 30 158 78 331 121 l150 38 5 -101 c5 -93
7 -102 25 -102 25 0 38 65 30 152 l-5 61 92 16 c51 9 116 20 143 25 28 5 62 9
78 10 l27 1 0 -214z m2100 159 l0 -54 -52 -16 c-28 -8 -53 -15 -55 -15 -2 0
-3 25 -3 55 l0 54 48 15 c26 8 50 15 55 15 4 1 7 -24 7 -54z m-1474 -35 c126
-44 248 -87 272 -96 l42 -16 0 -245 c0 -206 -2 -244 -14 -240 -8 3 -32 11 -55
18 l-41 12 0 142 c0 132 -2 144 -26 193 -33 66 -94 106 -164 106 -101 0 -139
-61 -140 -221 l0 -102 -52 18 -53 18 -3 246 c-1 136 -1 247 1 247 2 0 107 -36
233 -80z m1312 -6 l-3 -57 -45 -13 c-25 -8 -48 -14 -52 -14 -5 0 -8 24 -8 53
l0 53 48 16 c26 9 51 17 55 17 4 1 7 -24 5 -55z m-168 -49 c0 -60 -3 -63 -77
-80 l-33 -7 0 55 0 54 53 16 c28 8 53 16 55 16 1 1 2 -24 2 -54z m-1480 9 l40
-16 0 -164 0 -164 -50 20 c-28 11 -53 20 -55 20 -3 0 -5 72 -5 160 0 178 -3
173 70 144z m1320 -53 c0 -55 -1 -56 -65 -76 l-46 -13 3 55 c3 54 4 57 38 69
64 23 70 20 70 -35z m490 -144 l0 -164 -39 -11 c-75 -23 -72 -31 -69 150 l3
161 35 13 c73 26 70 33 70 -149z m-660 99 l0 -54 -47 -16 c-26 -9 -50 -16 -55
-16 -4 0 -8 24 -8 54 l0 55 48 14 c26 8 50 15 55 16 4 1 7 -23 7 -53z m500
-141 l0 -164 -52 -16 c-28 -8 -53 -15 -55 -15 -2 0 -2 75 -1 167 l3 166 40 13
c69 21 65 30 65 -151z m-863 129 c31 -14 33 -17 33 -65 0 -40 -3 -50 -14 -46
-8 3 -32 11 -55 18 l-41 12 0 54 c0 60 -2 60 77 27z m191 -40 l-3 -57 -45 -13
c-25 -8 -48 -14 -52 -14 -5 0 -8 24 -8 53 l0 53 48 16 c26 9 51 17 55 17 4 1
7 -24 5 -55z m502 -138 l0 -164 -47 -16 c-26 -9 -50 -16 -55 -16 -4 0 -8 74
-8 164 l0 164 43 15 c71 26 67 34 67 -147z m-160 -47 c0 -178 5 -166 -77 -184
l-33 -7 0 164 0 164 48 16 c26 8 50 13 55 11 4 -2 7 -76 7 -164z m-170 -44 l0
-164 -41 -11 c-22 -6 -47 -14 -55 -17 -12 -5 -14 19 -12 163 l3 168 40 12 c69
21 65 30 65 -151z m-377 109 l47 -16 0 -164 c0 -90 -1 -164 -2 -164 -2 0 -25
9 -53 19 l-50 19 -3 161 c-1 89 1 161 6 161 5 0 29 -7 55 -16z m207 -159 l0
-164 -52 -16 c-28 -8 -53 -15 -55 -15 -2 0 -2 75 -1 167 l3 166 40 13 c69 21
65 30 65 -151z m-995 46 l50 -19 3 -52 c3 -43 0 -52 -11 -47 -8 3 -33 11 -56
18 l-41 12 0 54 c0 29 1 53 3 53 1 0 25 -9 52 -19z m1825 -86 c0 -60 -3 -63
-77 -80 l-33 -7 0 55 0 54 53 16 c28 8 53 16 55 16 1 1 2 -24 2 -54z m-1602
-43 l3 -51 -53 18 -53 18 -3 51 -3 51 53 -18 53 -18 3 -51z m1442 -5 l0 -54
-55 -15 -56 -16 3 56 c3 53 4 56 38 68 65 23 70 20 70 -39z m-170 -52 c0 -30
-3 -55 -7 -55 -5 0 -30 -7 -56 -15 l-48 -14 3 57 3 56 40 12 c64 20 65 19 65
-41z m-160 -40 l0 -54 -41 -11 c-22 -6 -47 -14 -55 -17 -11 -4 -14 6 -14 50
l0 55 43 15 c66 24 67 23 67 -38z m-717 8 l47 -17 0 -53 c0 -29 -4 -53 -8 -53
-5 0 -29 7 -55 16 l-47 16 0 54 c0 30 3 54 8 54 4 0 28 -8 55 -17z m547 -50
l0 -58 -55 -16 -55 -16 0 56 0 56 53 16 c28 9 53 17 55 18 1 0 2 -25 2 -56z
m-335 -23 c3 0 5 -25 5 -56 0 -44 -3 -55 -14 -51 -8 3 -32 11 -55 18 l-41 12
0 58 0 59 50 -20 c28 -11 53 -20 55 -20z m165 -34 l0 -54 -44 -11 c-67 -17
-67 -17 -64 41 3 49 5 52 38 64 65 23 70 20 70 -40z"/>
<path d="M8890 10165 c-165 -53 -225 -264 -112 -395 52 -61 103 -84 187 -84
80 0 129 20 182 76 44 45 63 96 63 168 0 71 -15 112 -60 164 -63 72 -169 101
-260 71z m187 -81 c45 -36 83 -105 83 -151 0 -67 -50 -147 -112 -179 -34 -18
-119 -18 -161 0 -73 30 -125 127 -112 207 9 50 55 113 102 139 58 31 150 24
200 -16z"/>
<path d="M5800 8286 c-25 -8 -70 -22 -100 -31 -30 -10 -61 -19 -68 -21 -8 -2
-12 -12 -10 -21 5 -28 57 -27 140 1 40 13 84 26 98 28 19 2 25 9 25 28 0 31
-22 35 -85 16z"/>
<path d="M5855 8103 c-122 -39 -127 -41 -123 -61 5 -27 49 -26 133 3 96 33
121 34 224 1 96 -30 126 -32 135 -9 8 19 -17 43 -43 43 -9 0 -51 11 -94 25
-97 31 -132 31 -232 -2z"/>
<path d="M5628 7904 c-18 -17 -7 -44 20 -49 15 -4 62 -17 104 -31 97 -30 131
-30 224 1 41 14 82 25 92 25 10 0 27 6 37 14 17 12 18 16 5 31 -18 21 -74 15
-146 -15 -63 -28 -113 -28 -190 -2 -74 26 -136 37 -146 26z"/>
<path d="M5900 7673 c-25 -8 -72 -23 -105 -32 -46 -14 -60 -22 -60 -37 0 -29
52 -29 137 0 93 32 128 32 212 1 84 -31 142 -31 231 0 39 14 80 25 91 25 31 0
50 26 34 45 -18 21 -39 19 -144 -17 l-92 -31 -104 31 c-115 36 -136 37 -200
15z"/>
<path d="M5962 7458 c-20 -20 -14 -37 16 -44 15 -3 61 -17 102 -30 95 -31 151
-30 238 1 38 14 83 25 99 25 16 0 63 -11 103 -25 92 -31 152 -32 243 -1 40 14
83 26 97 28 15 2 26 11 28 22 8 42 -43 42 -157 0 -80 -30 -91 -30 -182 2 -92
33 -175 35 -241 6 -80 -35 -109 -37 -195 -9 -107 35 -136 40 -151 25z"/>
<path d="M2891 6855 c-144 -32 -275 -125 -326 -229 -76 -158 -46 -378 68 -489
57 -55 130 -94 295 -156 210 -79 268 -130 260 -229 -8 -100 -89 -149 -231
-140 -84 5 -128 24 -192 80 l-46 41 -84 -6 c-125 -9 -129 -12 -122 -107 6 -91
22 -127 79 -173 96 -77 204 -107 388 -107 199 0 329 42 432 138 92 86 130 183
129 335 0 215 -82 305 -381 419 -240 92 -280 122 -280 207 0 53 25 99 73 135
24 18 43 21 116 21 92 0 103 -4 192 -76 22 -17 45 -22 117 -27 65 -3 91 -1 97
8 4 7 10 51 12 99 5 78 3 89 -19 121 -29 43 -99 91 -176 121 -47 19 -81 23
-197 25 -96 3 -160 -1 -204 -11z"/>
<path d="M8541 6855 c-144 -32 -275 -125 -326 -229 -76 -158 -46 -378 68 -489
57 -55 130 -94 295 -156 210 -79 268 -130 260 -229 -8 -100 -89 -149 -231
-140 -84 5 -128 24 -192 80 l-46 41 -84 -6 c-125 -9 -129 -12 -122 -107 7
-112 34 -152 141 -215 151 -89 481 -88 657 0 76 39 154 117 189 190 55 115 58
293 6 398 -48 99 -138 161 -341 237 -237 89 -285 124 -285 209 0 53 25 99 73
135 24 18 43 21 116 21 92 0 103 -4 192 -76 22 -17 45 -22 117 -27 65 -3 91
-1 97 8 4 7 10 51 12 99 5 78 3 89 -19 121 -29 43 -99 91 -176 121 -47 19 -81
23 -197 25 -96 3 -160 -1 -204 -11z"/>
<path d="M9589 6710 c-75 -66 -89 -98 -89 -204 l0 -86 -73 0 c-43 0 -78 -5
-85 -12 -8 -8 -12 -46 -12 -104 0 -117 6 -124 101 -124 l69 0 0 -247 c0 -137
5 -279 10 -318 20 -134 79 -214 190 -256 78 -30 247 -30 343 1 37 12 71 28 74
36 3 8 -10 56 -28 107 l-34 92 -77 -4 c-71 -3 -79 -1 -102 22 -40 40 -46 86
-46 335 l0 232 104 0 c135 0 136 1 136 124 0 65 -4 97 -13 104 -7 6 -60 13
-118 14 l-104 3 -5 104 -5 103 -68 64 c-42 40 -76 64 -90 64 -12 0 -47 -22
-78 -50z"/>
<path d="M3879 6416 c-30 -24 -64 -58 -77 -75 l-22 -30 0 -465 c0 -450 1 -466
19 -476 11 -5 78 -10 150 -10 104 0 133 3 145 16 14 13 16 59 16 353 0 334 0
338 23 371 31 47 65 68 119 79 91 16 163 -12 203 -80 19 -32 20 -57 25 -377 4
-290 7 -344 20 -352 8 -5 74 -10 147 -10 106 0 135 3 147 16 14 13 16 60 16
362 0 381 -7 442 -57 533 -35 66 -100 122 -172 151 -46 18 -76 22 -171 23
-106 0 -120 -2 -175 -28 -33 -15 -76 -44 -95 -62 l-36 -35 -71 70 c-40 39 -78
70 -86 70 -8 0 -39 -20 -68 -44z"/>
<path d="M6393 6420 c-28 -22 -62 -55 -77 -74 l-26 -35 0 -669 0 -670 57 -57
c87 -87 96 -91 136 -66 19 11 57 45 85 75 l52 55 0 232 0 232 33 -27 c107 -88
280 -106 444 -45 44 17 75 39 129 93 119 119 166 249 167 456 0 360 -176 548
-494 527 -101 -6 -174 -34 -245 -92 l-42 -35 -27 33 c-36 42 -114 107 -130
107 -7 0 -35 -18 -62 -40z m510 -245 c48 -8 105 -57 130 -114 44 -100 29 -286
-29 -374 -48 -74 -174 -108 -261 -72 -52 22 -72 42 -99 100 -22 46 -24 63 -24
203 0 170 5 186 71 233 30 21 114 39 154 33 11 -2 37 -6 58 -9z"/>
<path d="M5355 6435 c-80 -15 -160 -47 -192 -77 -13 -12 -28 -48 -39 -91 -16
-68 -16 -71 2 -84 21 -15 108 -43 136 -43 10 0 35 10 56 23 73 46 143 62 222
51 86 -11 134 -56 147 -138 l5 -33 -131 -12 c-333 -30 -483 -118 -521 -305
-14 -70 -6 -153 22 -218 22 -53 91 -122 142 -143 92 -39 260 -36 353 5 27 12
66 39 89 61 l41 40 28 -41 c45 -65 57 -70 167 -70 74 0 100 4 112 16 14 13 16
59 16 345 0 429 -13 497 -112 605 -99 107 -318 151 -543 109z m333 -664 c-3
-60 -8 -75 -34 -108 -17 -21 -46 -49 -65 -61 -30 -21 -43 -23 -112 -20 -73 3
-81 6 -104 32 -21 25 -24 37 -21 78 10 97 97 143 277 147 l63 1 -4 -69z"/>
<path d="M10580 6439 c-66 -9 -164 -44 -202 -71 -30 -20 -58 -96 -58 -154 0
-31 3 -33 62 -53 34 -12 69 -21 77 -21 9 0 49 17 90 37 66 34 81 38 150 37 98
0 143 -20 171 -78 26 -55 27 -96 1 -96 -10 0 -65 -5 -122 -10 -356 -36 -509
-148 -509 -373 0 -40 5 -88 10 -107 25 -92 110 -176 205 -202 66 -18 201 -12
278 12 52 16 79 32 112 65 l44 43 28 -36 c55 -73 53 -72 166 -72 67 0 107 4
115 12 19 19 16 693 -3 776 -38 159 -136 252 -304 288 -71 15 -222 17 -311 3z
m310 -663 c0 -55 -4 -70 -32 -112 -43 -62 -86 -84 -166 -84 -79 0 -117 18
-132 64 -13 41 0 104 27 128 47 41 137 66 241 67 l62 1 0 -64z"/>
<path d="M11511 6404 c-88 -66 -104 -93 -102 -168 6 -220 168 -581 360 -804
l62 -73 -45 -63 c-25 -35 -67 -78 -93 -95 -59 -39 -144 -65 -187 -57 -28 5
-39 1 -80 -35 -26 -23 -54 -55 -62 -71 -14 -27 -14 -32 10 -71 42 -72 79 -100
138 -105 168 -13 383 96 520 265 205 252 395 693 447 1040 19 122 17 128 -44
192 -30 32 -70 66 -89 76 -34 19 -34 19 -68 -7 -18 -14 -54 -46 -79 -71 -45
-45 -46 -48 -53 -124 -15 -165 -99 -502 -139 -557 -13 -18 -17 -16 -57 35 -90
112 -175 339 -187 494 -3 44 -12 92 -20 107 -15 30 -139 138 -159 138 -7 0
-39 -21 -73 -46z"/>
</g>
</svg>
